<?xml version="1.0" encoding="UTF-8"?>
<svg id="_레이어_1" data-name=" 레이어 1" xmlns="http://www.w3.org/2000/svg" viewBox="0 0 1543.51 1242.81">
  <defs>
    <style>
      .cls-1 {
        fill: #8daff6;
      }

      .cls-2 {
        fill: #fff;
      }

      .cls-3 {
        fill: #202757;
      }
    </style>
  </defs>
  <g>
    <path class="cls-2" d="M1387.34,167.11v1075.7H120.33V167.11h1267.01,0ZM954.66,701.44c-.8-.46-10.11-14.08-9.93-15.35s10.43-14.07,12.35-17.29c46.55-77.97-30.62-173.24-116.94-145.36-58.53,18.9-80.31,84.61-57.05,139.15,1.19,2.79,4.37,8.43,6.31,10.14-18.38,40.83-16.55,100.84,1.6,141.55,1.09,2.45,9.32,15.14,8.19,16.4-1.43,1.58-2.77-1.85-3.31-2.69-2.08-3.22-4.73-7.72-5.45-11.51-3.41-.81-1.81,2.86-2.99,5.18-2.51,4.95-4.12.37-7.19.53-1.73.09-3.66,1.88-5.69,1.84-.42,0-7.75-1.92-8.04-2.22-.78-.81-.6-8.99-7.78-7.51,3.79,11.97-5.11,6.85-8.8,9.24-1.62,1.05-1.49,6-2.73,6.09-2.3.17-5.1-2.54-8.09-2.84-9.56-.96-17.37-2.17-26.79-.41-5.7,1.06-12.41,6.57-11.54-4.43-3.76-1.15-1.73,5.33-3.43,6.41-1.46.94-8.38-.35-10.78.15-1.53-4.41,6.05-11.73-1.49-9.89-3.45.84,2.03,7.75-3.67,10.73-5.12,2.67-6.92.09-10.74.19-6.63.18-12.7,3.04-18.07-2.77-.6-3.68,5.29-4.58,4.51-9.72s-3.69-1.17-5.25-.85c-2.08.43-4.28-.04-6.07.49s-2.52,3.1-4.58,3.11c-2.49.01-3.65-4.07-6.63-4.47-3.29-.44-4.47,2.02-6.45,2.14-1.17.07-3.33-1.37-3.85-1-.24.17-.51,3.77-1.27,4.23-1.15.7-6.07-.21-8.02,1.26l-.57-6.57c-2.92-.05-3.9,3.01-7.05,3.13-3.93.15-6.62-2.56-9.8-4.16-7.34,2.44-16.73-.48-23.85,2.39-5,2.02-6.43,9.08-8.47,10.11-.63.32-7.68,1.53-8.12,1.43-2.5-.56-2.3-5.94-3.89-6.95-1.41-.9-3.9-.11-5.49-1.07-1.68-1.01-.87-4.18-4.67-3.66-4.35.6-6.23,3.18-5.18,7.5.49.52,9.97-3.22,13.11,2.75.81,1.54-6.11,3.8-7.09,4.95-3.22.03-5.76-6.4-6.78-6.63-5.29-1.22-11.76,0-16.69,1.1-.62-2.75-.36-7.1-2.97-8.51-1.79-.97-7.48-1.72-8.88.09-.17.22-.54,5.64-3.49,2.97-.47-.43,2.27-3.59-.45-5.54-4.91-3.51-14.23-.17-11.57-11.94,3.43-.72,1.46,2.67,4.89,3.29,1.52.28,3.35-.13,4.94-.02-.27-12.96-8.33-6.63-12.44-7.73-3.68-.98-2.58-6.35,3.68-3.21,1.23-3.99-3.8-6.78-3.31-10.36,10.69-1.5-2.83-12.02-5.43-9.32.47,3.81-1.85,13.7-1.16,16.74.27,1.21,3.28,1.52,3.33,2.4.05.94-7.35,5.72-7.58,6.8-1.46,6.84,2.05,7,2.16,7.42.83,3.17-1.91,2.42-2.19,3.46-1.34,4.92,1.98,4.78,2.16,5.45,1.17,4.4-3.16,2.97-2.17,6.94l9.83-1.08c-5.74,16.64,9.06,8.97,9.83,9.84.64.71-.04,3.82-1.79,4.29-2.56.69-4.84-2.16-7.99.66-.39.35-5.16,7.29-5.25,7.75-.74,3.74,5.46,16.67,6.88,21.18.5,1.58-.64,3.35-.13,5.47,6.97,29.05,49.88,62.96,75.34,76.72,74.3,40.17,160.64,31.09,233.51-6.28,2.25-1.15,10.63-8.52,12.1-7.02l1.09,61.22c31.81-3.31,50.01-40.06,58.19-67.54,57.55-8.24,112.51-48.11,128.74-105.19-9.47,3.72-7.85-4.98-10.95-7.08-1.61-1.09-5.84-1.25-8.39-2.54-2.4-1.21-5.86-4.06-8.53-5.73-2.4-1.5-5.06-.23-3.85-4.69.38-1.38,3.88-1.23,3.3-3.45-5.83-3.29-6.96-3.2-9.57-8.98-2.4-5.32-4.13,5.17-5.18,7.33-9.39,19.46-22.63,36.48-41.51,47.03-6.09,3.4-13.09,6.68-20.25,6.52-.98-4.31,3.09-4.54,4.91-6.56,33.57-37.19,36.92-97.15,28.98-144.3,2.06,2.54,8.87,9.14,9.59,11.71,1.33,4.67-.63,8.37,1.98,14.41.98,2.26,12.89,18.42,14.12,18.69,1.78.39,5.32-8.04,7.11-10.35,5.3-6.83,14.07-12.1,22.94-11.51,3.34-3.21-14.91-22.69-20.48-23.8-2.86-.57-8.36.4-9.91-.49h.02ZM451.22,729.14c-5.7.54-20.86,14.28-24.76,19.04-27.28,33.25-18.63,105.08,26.26,117.98,4.34,1.25,20.34,4.48,20.44-1.88l-19.6-133.42c-.64-1.14-.74-1.87-2.33-1.72h-.01ZM1034.16,777.17c-3.49-2.26-4.27,4.93-5.72,7.83-2.61,5.21-5.53,9.2-10.25,12.7-2.27,1.68-11.62,5.2-9.68,7.87,16.22,8.05,30.21-5.3,27.64-22.18-.13-.85-1.72-6.04-2-6.22h.01ZM762.99,792.59c-.52-.88-8.52-4.55-9.7-3.45,3.41,7.39-4.23,9.92-9.52,13.44-.58.38-.77,2.04-1.41,2.44-1.31.82-4.72-.9-7.11-.6-2.82.36,4,5.37,4.39,5.46,2.34.54,2.18-3.2,3.34-3.29s4.31,1.56,6.17,1.22c1.1,1.37,12.48,8.45,9.59,2.64-.86-1.73-3.79-1.34-4.19-1.8s-.32-4.05-.17-4.21c1.69-1.79,5.15,2.94,6.16,3.13,1.58.3,3.05-1.73,4.4-1.87,1.66-.17,9.52,6.27,5.86-4.07-14.7,2.87-6.17-6.27-7.82-9.05h0ZM1002.53,818.66h-2.17v3.27h2.17v-3.27Z"/>
    <path class="cls-2" d="M920.56,675.44c-15.4-48.65-71.7-85.69-111.52-36.61-2.06,2.54-4.57,8.06-6.52,10.83-.86,1.22-1.24,1.07-2.26.13-2.26-2.07-6.25-22.29-6.52-26.28-3.88-57.85,51.82-98.8,106.01-77.58,46.44,18.18,65.27,81.13,32.84,120.26-1.66,2.01-9.8,10.8-12.03,9.26h0Z"/>
    <path class="cls-2" d="M626.47,825.24c.25.31-.14,2.35.01,3.25-4.15-2.33-12.98,5.27-15.3,2.18-.25-.33,2.99-7.38,3.31-7.64.48-.38,11.6,1.73,11.98,2.21Z"/>
    <path class="cls-2" d="M650.52,827.41c.26,2.01.07,3.21-1.65,4.36h-1.62v-4.36h3.27Z"/>
    <path class="cls-2" d="M801.38,831.78c1.19,1.19-.98,3.37-2.17,2.17s.98-3.37,2.17-2.17Z"/>
    <path class="cls-2" d="M744.53,832.87c1.19,1.19-.98,3.37-2.17,2.17s.98-3.37,2.17-2.17Z"/>
    <path class="cls-2" d="M804.66,836.15c1.19,1.19-.98,3.37-2.17,2.17s.98-3.37,2.17-2.17Z"/>
    <path class="cls-2" d="M805.21,839.43c.71.36.71.73,0,1.09v-1.09Z"/>
  </g>
  <g>
    <path class="cls-1" d="M1482.08,716.78c-9.43-1.03-7.3-.82-9.6,6.33-37.29,116.42-101.13,207.62-214.32,261.23-35.8,16.95-78.04,30.55-117.42,34.25-14.28,42.73-32.93,86.54-62.63,121.13-16.49,19.19-60.32,54.76-87.09,46.15l-4.82-3.9v-141.45c-28,13.09-54.31,31.63-82.42,44.46-5.87,2.69-15.33,6.86-20.32,8.91-181.6,74.15-413.28,55.13-569.53-65.11-207.75-159.89-207.82-461.32,3.35-614.84,172.53-125.42,386.75-135.7,581.98-58.5,1.21.48,24.27,19.43,22.77,5.51,7.34,13.82,15.81,18.37,8.47,35.61-49.11,115.5-33.34,307.43,55.56,403.38,63.4,68.42,150.14,84.5,218.91,13.07-.75,9.34,1.61,5.95,7.37,3.01,55.13-28.11,86.16-52.84,116.22-108.37,5.2-9.6,21.67-47.79,22.07-56.76.48-10.93-9.65-23.35-11.26-35-2.07-15.02,2.02-33.63-.26-47.86,12.47,2.81,10.3-14.13,16.18-23.2,6.12-9.46,30.71-28.58,41.4-31.53,9.15-2.53,24.41,5.15,21.18-9.44,18.58,12.32,56.06-1.06,68.83,14.28,5.53,6.62,2.72,13.7,6.77,19.47,2.79,3.95,15.53,9.96,20.32,14.69,25.04,24.77,19.06,54.11,23.66,85.72-12.86-3.01-9.49,9.55-13.46,17.17-11.43,21.98-29.08,40.66-53.56,47.13l.1,8.42c6.06-2.02,10.83,5.87,11.5,6.04h.03Z"/>
    <path class="cls-3" d="M922.04,360.96c-113.28-213.47,117.79-448.74,332.58-328.18,117.25,65.81,160.59,218.32,94.43,336.61-9.24,16.52-22.75,29.9-33.25,45.47l23.98,35.87c44.1-9.97,54.09,37.19,78.14,53.13,3.23,14.59-12.03,6.91-21.18,9.44-10.67,2.94-35.26,22.07-41.4,31.53-5.88,9.07-3.71,26-16.18,23.2-2.69-16.73-37.43-41-38.08-65.72-.14-5.46,2.79-10.42,2.7-14.64-.24-9.72-18.77-25.78-25.85-33.37,5.29,40.03,13.57,80.6,11.79,121.18-3.51,79.39-28.43,179.08-84.73,237.55-68.77,71.43-155.51,55.36-218.91-13.07-88.9-95.95-104.65-287.86-55.56-403.38,7.32-17.24-1.15-21.79-8.47-35.61h-.02ZM1268.03,108.4c-108.78-106.86-291.49-47.45-318.43,100.74-7.41,40.76.86,74.58,10.38,113.89,23.61-24.12,43.48-54.24,75.13-69.21,78.47-37.12,152.24,9.12,194.26,75.45,11.32,17.89,17.53,40.23,27.44,57.15,1.06,1.81.17,5.66,5,3.66,8.04-3.34,36.23-39.98,41.07-49.37,38.75-75.18,25.83-172.7-34.85-232.32h0Z"/>
    <path class="cls-3" d="M151.59,859.27c-31,9.82-64.08-4.12-88.13-23.49-97.2-78.26-81.22-265.49,37.51-317.23,10.08.67,11.91,56.14,13.31,65.29,12.21,79.13,31.65,168.82,37.65,248.17.68,8.96.21,18.32-.36,27.25h.02Z"/>
    <path class="cls-3" d="M1537.5,638.04c3.32,22.85,12.49,30.19-1.59,55.27-6.74,11.99-12.21,12.95-22.39,17.84-2.17,1.04-2.22,5.06-4.33,5.54-3.81.87-23.47.99-27.11.1-.67-.17-5.44-8.06-11.5-6.04l-.1-8.42c24.48-6.45,42.12-25.15,53.56-47.13,3.97-7.63.6-20.19,13.46-17.17Z"/>
  </g>
</svg>