<?xml version="1.0" encoding="UTF-8"?>
<svg id="_레이어_1" data-name="레이어 1" xmlns="http://www.w3.org/2000/svg" viewBox="0 0 793.75 673.03">
  <defs>
    <style>
      .cls-1 {
        fill: #1f2554;
      }

      .cls-2 {
        fill: #90b0f4;
      }
    </style>
  </defs>
  <path class="cls-2" d="M591.93,450.17c-7.34-26.11-22.99-49.35-44.94-65.44l9.93-11.07c-15.21-17.58-16.02-.32-29.63,6.38-9.42,4.64-17.19,5.49-27.48,2.89-19.8-5.01-12.63-16.65-13.79-32.67,42.91,3.44,45.92-74.04,6.38-79.79-7.67-1.12-33.08-1.13-40.84-.12-42.69,5.56-31.67,79.92-3,79.92h21.48v26.47c0,1.68-9.08,5.49-10.99,6-12.17,3.25-22.26,1.68-32.7-5.26-4.07-2.7-11.43-12.9-12.28-13.21-.7-.26-12.17,7.32-12.5,7.98-2.01,4.08,6.26,6.74,5.1,10.02-.54,1.54-20.24,16.5-24.5,21.49-24.28,28.39-33.9,66.48-27.01,103.36-62.92-4.27-122.78-28.93-173.83-64.94v97.9c-31.91-1.74-53.88-29.63-68.1-55.28-21.62-39.01-32.87-86.35-37.8-130.54,77.6,44.06,141.05-44.26,152.87-111.88,40.1,91.12,179.15,80.56,202.5-16.78,29.85-124.4-135.44-187.78-198.51-80.14-4.39-28.78-13.04-60.75-27.99-85.91C335.09-25.48,537.63-8.5,642.91,109.98c97.62,109.86,67.56,261.98-50.98,340.19ZM519.79,170.73c-44.33,5.35-39.69,77.15,10.59,71.53,44.4-4.96,39.46-77.57-10.59-71.53Z"/>
  <path class="cls-1" d="M75.88,354.57C-36.38,290.76-26.46,2.62,121.57,0c13.61.94,22.69,7.24,37.3,14.09,4.21,1.94,8.62,4.15,12.13,7.09,4.12,3.53,8.02,7.75,12.09,11.49,28.76,27.93,41.07,67.9,48.29,106.22,1.4,4.48,3.45,2.05,6.22-1.58,81.18-112.11,250.91-4.36,180.83,118.48-40.22,66-146.21,66.36-185.06-3.57-2.08-3.49-4.86-9.55-6.58-2.28-14.58,67.35-78.73,146.24-150.73,104.72l-.18-.1ZM319.01,112.81c-48.15,2.75-78.99,43.62-76.62,88.49,1.24,42.51,31.72,79.45,75.9,82.09,120.96,11.55,125.69-178.48.96-170.59l-.24.02Z"/>
  <path class="cls-1" d="M355.17,507.12c-6.89-36.88,2.73-74.97,27.01-103.36,4.27-4.99,23.96-19.95,24.5-21.49,1.16-3.28-7.1-5.94-5.1-10.02.33-.67,11.81-8.24,12.5-7.98.85.31,8.21,10.51,12.28,13.21,10.44,6.94,20.53,8.51,32.7,5.26,1.91-.51,10.99-4.31,10.99-6v-26.47h-21.48c-28.67,0-39.69-74.36,3-79.92,7.76-1.01,33.16-1,40.84.12,39.54,5.76,36.53,83.24-6.38,79.79,1.17,16.02-6.01,27.67,13.79,32.67,10.29,2.6,18.06,1.75,27.48-2.89,13.61-6.7,14.42-23.96,29.63-6.38l-9.93,11.07c21.94,16.08,37.59,39.33,44.94,65.44,7.26,25.82,6.48,51.19-2.98,76.44-1.7,4.52-13.18,25.27-12.86,26.72.25,1.1,11.62,11.03,12.82,11.34,3.44.87,8.8-1.24,13.44-.52,5.6.87,74,59.64,78.32,66.53,12.02,19.17-9.79,46.39-29.87,41.86-5.55-1.26-77.75-64.87-79.65-70.21-2.23-6.25.31-13.88-.64-16.26-.33-.83-12.39-11.73-13.26-11.89-1.95-.36-26.24,17.9-33.58,21.03-70.39,30.06-154.36-12.43-168.5-88.08ZM383.14,509.12c28.87,111.35,205.42,81.1,184.82-42.96-3.6-21.65-14.27-41.18-30.96-55.45-18.05-15.42-15.95-7.85-36.02-10.93-6.29-.97-20.4-9.32-21.58-9.36-1.29-.05-16.82,8.85-23.94,9.69-22.08,2.59-20.22-7.46-40.8,9.15-30.11,24.29-41.15,62.66-31.51,99.86Z"/>
  <path class="cls-1" d="M708.26,335.45c-.99-.16-1.38-.22-1.4-.98,5.05-41.26,20.73-172.63,24.37-200.29.19-.35.61-.47,1.39-.36,1.16.16,3.22.89,5.78,1.95,67.39,27.66,73.04,141.27,18.06,184.32-8.57,6.72-19.35,11.81-29.83,14.58-5.12,1.29-14.39,1-18.27.79h-.1Z"/>
  <path class="cls-1" d="M519.79,170.73c50.04-6.04,54.98,66.56,10.59,71.53-50.28,5.62-54.92-66.18-10.59-71.53Z"/>
  <path class="cls-2" d="M319.01,112.81c114.96-9.04,124.45,161.59,16.64,170.49-116.44,9.62-126.14-161.88-16.64-170.49ZM323.96,165.72c-43.67,5.41-37.64,76.34,11.63,69.57,41.93-5.76,36.43-75.53-11.63-69.57Z"/>
  <path class="cls-2" d="M567.96,466.16c-15.88,7.18-31.64,14.73-49.44,20.99-43.81,15.4-88.67,23.39-135.38,21.97-9.65-37.21,1.4-75.57,31.51-99.86,20.58-16.6,18.73-6.56,40.8-9.15,7.12-.84,22.65-9.74,23.94-9.69,1.18.04,15.3,8.4,21.58,9.36,20.07,3.08,17.98-4.49,36.02,10.93,16.7,14.27,27.37,33.8,30.96,55.45Z"/>
  <path class="cls-1" d="M323.96,165.72c48.06-5.96,53.56,63.82,11.63,69.57-49.27,6.76-55.3-64.16-11.63-69.57Z"/>
</svg>